<svg width="1995" height="698" viewBox="0 0 1995 698" fill="none" xmlns="http://www.w3.org/2000/svg">
<path d="M872.008 364.6C872.008 350.093 874.909 337.464 880.712 326.712C886.515 315.789 894.536 307.341 904.776 301.368C915.187 295.395 927.048 292.408 940.36 292.408C957.597 292.408 971.763 296.589 982.856 304.952C994.12 313.315 1001.54 324.92 1005.13 339.768H980.04C977.651 331.235 972.957 324.493 965.96 319.544C959.133 314.595 950.6 312.12 940.36 312.12C927.048 312.12 916.296 316.728 908.104 325.944C899.912 334.989 895.816 347.875 895.816 364.6C895.816 381.496 899.912 394.552 908.104 403.768C916.296 412.984 927.048 417.592 940.36 417.592C950.6 417.592 959.133 415.203 965.96 410.424C972.787 405.645 977.48 398.819 980.04 389.944H1005.13C1001.37 404.28 993.864 415.8 982.6 424.504C971.336 433.037 957.256 437.304 940.36 437.304C927.048 437.304 915.187 434.317 904.776 428.344C894.536 422.371 886.515 413.923 880.712 403C874.909 392.077 872.008 379.277 872.008 364.6ZM1097.4 437.304C1084.25 437.304 1072.31 434.317 1061.56 428.344C1050.97 422.371 1042.61 413.923 1036.47 403C1030.49 391.907 1027.51 379.107 1027.51 364.6C1027.51 350.264 1030.58 337.635 1036.72 326.712C1043.04 315.619 1051.57 307.171 1062.32 301.368C1073.08 295.395 1085.11 292.408 1098.42 292.408C1111.73 292.408 1123.76 295.395 1134.52 301.368C1145.27 307.171 1153.72 315.533 1159.86 326.456C1166.17 337.379 1169.33 350.093 1169.33 364.6C1169.33 379.107 1166.09 391.907 1159.6 403C1153.29 413.923 1144.67 422.371 1133.75 428.344C1122.83 434.317 1110.71 437.304 1097.4 437.304ZM1097.4 416.824C1105.76 416.824 1113.61 414.861 1120.95 410.936C1128.29 407.011 1134.17 401.123 1138.61 393.272C1143.22 385.421 1145.52 375.864 1145.52 364.6C1145.52 353.336 1143.31 343.779 1138.87 335.928C1134.43 328.077 1128.63 322.275 1121.46 318.52C1114.29 314.595 1106.53 312.632 1098.16 312.632C1089.63 312.632 1081.78 314.595 1074.61 318.52C1067.61 322.275 1061.98 328.077 1057.72 335.928C1053.45 343.779 1051.32 353.336 1051.32 364.6C1051.32 376.035 1053.36 385.677 1057.46 393.528C1061.73 401.379 1067.36 407.267 1074.36 411.192C1081.35 414.947 1089.03 416.824 1097.4 416.824ZM1268.31 292.152C1285.38 292.152 1299.2 297.357 1309.79 307.768C1320.37 318.008 1325.66 332.856 1325.66 352.312V435H1302.62V355.64C1302.62 341.645 1299.12 330.979 1292.12 323.64C1285.12 316.131 1275.57 312.376 1263.45 312.376C1251.16 312.376 1241.35 316.216 1234.01 323.896C1226.84 331.576 1223.26 342.755 1223.26 357.432V435H1199.96V294.712H1223.26V314.68C1227.87 307.512 1234.1 301.965 1241.95 298.04C1249.97 294.115 1258.76 292.152 1268.31 292.152ZM1432.06 292.152C1449.13 292.152 1462.95 297.357 1473.54 307.768C1484.12 318.008 1489.41 332.856 1489.41 352.312V435H1466.37V355.64C1466.37 341.645 1462.87 330.979 1455.87 323.64C1448.87 316.131 1439.32 312.376 1427.2 312.376C1414.91 312.376 1405.1 316.216 1397.76 323.896C1390.59 331.576 1387.01 342.755 1387.01 357.432V435H1363.71V294.712H1387.01V314.68C1391.62 307.512 1397.85 301.965 1405.7 298.04C1413.72 294.115 1422.51 292.152 1432.06 292.152ZM1655.46 359.48C1655.46 363.917 1655.21 368.611 1654.69 373.56H1542.57C1543.42 387.384 1548.11 398.221 1556.65 406.072C1565.35 413.752 1575.85 417.592 1588.13 417.592C1598.2 417.592 1606.57 415.288 1613.22 410.68C1620.05 405.901 1624.83 399.587 1627.56 391.736H1652.65C1648.89 405.219 1641.38 416.227 1630.12 424.76C1618.85 433.123 1604.86 437.304 1588.13 437.304C1574.82 437.304 1562.88 434.317 1552.29 428.344C1541.88 422.371 1533.69 413.923 1527.72 403C1521.74 391.907 1518.76 379.107 1518.76 364.6C1518.76 350.093 1521.66 337.379 1527.46 326.456C1533.26 315.533 1541.37 307.171 1551.78 301.368C1562.36 295.395 1574.48 292.408 1588.13 292.408C1601.45 292.408 1613.22 295.309 1623.46 301.112C1633.7 306.915 1641.55 314.936 1647.01 325.176C1652.65 335.245 1655.46 346.68 1655.46 359.48ZM1631.4 354.616C1631.4 345.741 1629.44 338.147 1625.51 331.832C1621.58 325.347 1616.21 320.483 1609.38 317.24C1602.73 313.827 1595.3 312.12 1587.11 312.12C1575.33 312.12 1565.26 315.875 1556.9 323.384C1548.71 330.893 1544.02 341.304 1542.82 354.616H1631.4ZM1677.51 364.6C1677.51 350.093 1680.41 337.464 1686.21 326.712C1692.01 315.789 1700.04 307.341 1710.28 301.368C1720.69 295.395 1732.55 292.408 1745.86 292.408C1763.1 292.408 1777.26 296.589 1788.36 304.952C1799.62 313.315 1807.04 324.92 1810.63 339.768H1785.54C1783.15 331.235 1778.46 324.493 1771.46 319.544C1764.63 314.595 1756.1 312.12 1745.86 312.12C1732.55 312.12 1721.8 316.728 1713.6 325.944C1705.41 334.989 1701.32 347.875 1701.32 364.6C1701.32 381.496 1705.41 394.552 1713.6 403.768C1721.8 412.984 1732.55 417.592 1745.86 417.592C1756.1 417.592 1764.63 415.203 1771.46 410.424C1778.29 405.645 1782.98 398.819 1785.54 389.944H1810.63C1806.87 404.28 1799.36 415.8 1788.1 424.504C1776.84 433.037 1762.76 437.304 1745.86 437.304C1732.55 437.304 1720.69 434.317 1710.28 428.344C1700.04 422.371 1692.01 413.923 1686.21 403C1680.41 392.077 1677.51 379.277 1677.51 364.6ZM1870.13 313.912V396.6C1870.13 403.427 1871.58 408.291 1874.48 411.192C1877.38 413.923 1882.42 415.288 1889.58 415.288H1906.74V435H1885.74C1872.77 435 1863.05 432.013 1856.56 426.04C1850.07 420.067 1846.83 410.253 1846.83 396.6V313.912H1828.66V294.712H1846.83V259.384H1870.13V294.712H1906.74V313.912H1870.13Z" fill="white"/>
<g clip-path="url(#clip0_3479_423)">
<path d="M835.002 137.997C837.936 139.793 839.474 140.941 841.002 143.997C841.149 145.614 841.239 147.236 841.299 148.859C841.338 149.862 841.377 150.865 841.417 151.899C841.473 153.531 841.473 153.531 841.53 155.196C841.571 156.325 841.612 157.454 841.655 158.617C842.419 180.071 842.766 201.531 843.002 222.997C843.012 223.882 843.022 224.768 843.032 225.68C843.168 237.976 843.273 250.271 843.329 262.567C843.353 267.838 843.385 273.109 843.437 278.379C843.486 283.402 843.51 288.424 843.516 293.447C843.522 295.323 843.537 297.199 843.561 299.074C843.593 301.664 843.593 304.251 843.586 306.841C843.602 307.598 843.619 308.356 843.635 309.136C843.589 313.084 843.145 314.818 840.653 317.944C837.151 320.656 833.955 321.579 829.508 321.519C823.686 320.306 818.685 316.387 813.752 313.184C812.571 312.437 811.389 311.692 810.205 310.948C801.929 305.716 801.929 305.716 798.765 303.26C797.093 301.803 797.093 301.803 795.002 301.997C793.399 304.258 793.399 304.258 791.756 307.215C791.433 307.772 791.11 308.329 790.778 308.903C790.073 310.12 789.371 311.34 788.672 312.562C787.168 315.19 785.649 317.808 784.13 320.427C783.328 321.811 782.526 323.196 781.725 324.582C777.636 331.65 773.469 338.671 769.292 345.686C767.275 349.073 765.262 352.46 763.248 355.848C762.683 356.799 762.683 356.799 762.107 357.769C758.885 363.19 755.681 368.622 752.489 374.061C749.318 379.464 746.13 384.856 742.94 390.247C739.252 396.479 735.576 402.718 731.92 408.969C731.571 409.567 731.221 410.165 730.861 410.781C730.508 411.384 730.155 411.987 729.792 412.609C723.75 422.939 717.677 433.246 711.502 443.497C706.09 452.484 700.743 461.507 695.44 470.559C695.084 471.166 694.728 471.773 694.361 472.398C690.575 478.854 686.81 485.32 683.096 491.817C682.478 492.893 681.86 493.968 681.223 495.077C680.081 497.067 678.946 499.061 677.818 501.059C670.348 514.05 661.441 524.525 648.002 531.372C647.35 531.706 646.698 532.04 646.026 532.384C633.204 538.587 616.492 539.29 602.877 535.372C600.897 534.635 598.937 533.845 597.002 532.997C596.075 532.596 595.149 532.195 594.194 531.782C580.167 524.918 568.929 512.702 563.676 498.01C562.346 494.035 561.158 490.025 560.002 485.997C559.731 485.051 559.459 484.105 559.179 483.13C557.688 477.899 556.228 472.659 554.783 467.415C553.101 461.321 551.346 455.25 549.565 449.184C546.569 438.98 543.642 428.758 540.754 418.523C539.157 412.895 537.505 407.319 535.545 401.805C534.851 399.492 534.77 397.393 535.002 394.997C531.331 398.362 528.743 402.133 526.002 406.247C511.781 427.246 495.822 447.031 479.002 465.997C478.364 466.728 477.726 467.459 477.069 468.212C468.077 478.391 458.518 488.376 448.002 496.997C447.513 497.405 447.023 497.814 446.519 498.235C423.01 517.814 397.578 533.048 369.002 543.997C368.305 544.271 367.607 544.545 366.888 544.828C350.071 551.374 330.725 555.045 312.682 555.235C311.909 555.245 311.137 555.255 310.341 555.265C293.509 555.435 277.383 555.317 261.002 550.997C260.043 550.755 259.083 550.514 258.094 550.265C237.963 545.132 219.358 537.455 202.002 525.997C201.118 525.415 201.118 525.415 200.215 524.822C191.649 519.119 183.988 512.719 176.611 505.554C175.007 504.001 173.383 502.471 171.756 500.942C149.798 479.992 135.077 453.395 125.002 424.997C124.612 423.896 124.221 422.795 123.819 421.661C112.096 384.714 113.437 340.158 127.002 303.997C127.269 303.277 127.536 302.558 127.811 301.817C134.518 284.01 143.58 268.186 155.002 252.997C155.718 252.035 156.433 251.073 157.17 250.083C184.978 214.476 225.824 190.484 270.002 181.997C270.907 181.817 271.811 181.638 272.742 181.453C281.649 179.869 290.38 179.69 299.394 179.736C301.867 179.747 304.338 179.736 306.811 179.723C320.586 179.709 333.772 181.037 347.127 184.622C348.588 185.012 348.588 185.012 350.078 185.41C380.167 193.713 406.723 208.304 430.002 228.997C430.523 229.45 431.044 229.904 431.58 230.372C438.827 236.686 445.093 243.394 451.002 250.997C451.691 251.831 452.379 252.665 453.088 253.524C466.002 269.184 466.002 269.184 466.002 274.997C468.331 272.74 470.579 270.504 472.658 268.012C480.526 258.611 489.605 251.801 500.627 246.559C501.295 246.241 501.963 245.924 502.65 245.596C512.483 241.167 521.745 239.503 532.502 239.622C533.553 239.61 534.603 239.599 535.686 239.587C542.896 239.613 549.164 240.743 556.002 242.997C557.625 243.527 557.625 243.527 559.28 244.067C567.177 247.198 573.507 251.553 580.002 256.997C580.745 257.613 581.487 258.229 582.252 258.864C594.062 269.613 598.094 284.312 602.146 299.199C602.844 301.478 603.626 303.646 604.489 305.864C605.936 309.668 606.893 313.463 607.76 317.446C610.123 327.913 613.043 338.218 615.956 348.543C616.873 351.793 617.784 355.044 618.694 358.296C621.519 368.367 624.391 378.423 627.385 388.446C627.635 389.286 627.886 390.126 628.144 390.992C629.344 395.082 629.344 395.082 631.002 398.997C633.525 394.706 636.045 390.414 638.565 386.122C638.948 385.469 639.331 384.816 639.726 384.143C645.07 375.035 650.37 365.904 655.627 356.747C661.098 347.225 666.702 337.791 672.378 328.39C676.843 320.976 681.197 313.504 685.502 305.997C694.926 289.572 704.594 273.282 714.682 257.255C716.13 254.955 716.13 254.955 717.002 251.997C716.335 251.763 715.667 251.53 714.979 251.29C711.194 249.646 707.849 247.526 704.377 245.309C702.953 244.404 701.528 243.499 700.104 242.594C699.06 241.929 699.06 241.929 697.995 241.251C696.23 240.14 694.442 239.064 692.651 237.993C683.239 232.323 683.239 232.323 681.002 226.997C680.433 223.853 680.136 221.089 681.002 217.997C684.195 214.235 687.591 211.823 691.877 209.434C692.469 209.103 693.061 208.772 693.67 208.431C700.379 204.717 707.202 201.215 714.01 197.688C720.49 194.327 726.919 190.889 733.315 187.372C742.825 182.146 752.406 177.061 762.002 171.997C771.573 166.944 781.132 161.878 790.627 156.684C791.474 156.224 792.322 155.763 793.195 155.289C797.936 152.705 802.639 150.064 807.323 147.376C808.394 146.771 809.466 146.166 810.57 145.543C812.627 144.382 814.675 143.204 816.712 142.007C822.81 138.593 827.962 136.7 835.002 137.997ZM811.014 171.419C810.009 171.943 809.004 172.468 807.969 173.009C806.887 173.582 805.805 174.156 804.69 174.747C803.569 175.335 802.448 175.923 801.294 176.53C793.21 180.788 785.182 185.144 777.175 189.545C770.662 193.117 764.097 196.579 757.502 199.997C749.65 204.071 741.836 208.207 734.065 212.434C732.725 213.16 732.725 213.16 731.358 213.901C726.119 216.763 721.034 219.784 716.002 222.997C717.445 226.62 719.096 227.991 722.432 229.942C723.31 230.462 724.188 230.981 725.092 231.516C726.011 232.046 726.93 232.576 727.877 233.122C729.244 233.928 729.244 233.928 730.639 234.751C735.368 237.549 735.368 237.549 740.249 240.063C742.002 240.997 742.002 240.997 742.752 242.622C742.876 243.797 742.876 243.797 743.002 244.997C743.13 246.138 743.257 247.278 743.389 248.454C743.358 254.473 740.086 259.042 737.065 264.059C736.52 264.994 735.976 265.93 735.414 266.893C733.632 269.941 731.821 272.97 730.002 275.997C729.292 277.181 728.581 278.365 727.871 279.55C726.741 281.434 725.61 283.318 724.479 285.201C720.274 292.202 716.106 299.223 711.94 306.247C711.113 307.64 710.286 309.034 709.459 310.427C708.199 312.552 706.938 314.676 705.678 316.801C703.341 320.741 701.003 324.679 698.663 328.617C691.633 340.45 684.635 352.299 677.76 364.223C674.028 370.695 670.251 377.14 666.481 383.59C662.706 390.056 658.961 396.54 655.233 403.034C650.147 411.885 645.051 420.733 639.815 429.497C639.381 430.238 638.948 430.98 638.502 431.744C634.758 437.935 634.758 437.935 631.002 438.997C628.819 439.368 628.819 439.368 626.565 439.434C625.824 439.474 625.082 439.514 624.319 439.555C620.749 438.694 619.296 436.802 617.002 433.997C615.666 430.922 615.666 430.922 614.627 427.309C614.324 426.274 614.324 426.274 614.014 425.218C613.321 422.816 612.658 420.408 612.002 417.997C611.644 416.68 611.644 416.68 611.278 415.338C610.174 411.268 609.08 407.196 607.995 403.121C604.962 391.75 601.763 380.429 598.554 369.107C595.807 359.415 593.086 349.716 590.393 340.008C589.463 336.663 588.532 333.317 587.602 329.971C587.003 327.813 586.406 325.654 585.81 323.495C582.974 313.221 580.101 302.969 576.787 292.837C576.554 292.112 576.321 291.387 576.081 290.641C572.395 279.651 564.164 271.636 553.905 266.422C541.193 260.925 528.206 260.159 515.03 264.743C500.469 270.774 489.291 282.171 481.127 295.434C480.697 296.13 480.266 296.825 479.822 297.541C476.258 303.391 473.171 309.408 470.178 315.563C465.672 324.818 460.804 333.894 456.002 342.997C455.49 343.972 454.978 344.947 454.451 345.952C440.101 373.225 424.342 400.679 404.002 423.997C402.985 425.178 402.985 425.178 401.948 426.383C387.788 442.488 372.989 455.867 354.002 465.997C353.151 466.469 352.301 466.94 351.424 467.426C324.001 482.046 291.301 483.467 261.912 474.524C244.807 468.851 230.527 459.883 218.002 446.997C217.182 446.174 216.363 445.352 215.518 444.505C194.489 422.388 184.917 391.863 185.651 361.797C187.069 331.213 202.014 302.809 224.44 282.356C235.964 272.327 249.88 265.517 264.252 260.622C264.948 260.383 265.644 260.144 266.36 259.898C294.979 250.677 326.63 255.677 353.055 268.886C363.794 274.502 373.053 281.84 381.846 290.149C383.874 292.055 383.874 292.055 386.158 293.001C388.543 294.289 388.843 295.581 390.002 297.997C391.462 299.496 392.968 300.949 394.502 302.372C400.813 308.526 410.568 318.244 411.252 327.309C410.985 331.255 410.505 332.976 408.002 335.997C404.355 338.067 401.147 338.589 397.002 337.997C392.691 335.314 390.286 332.055 387.377 327.934C376.312 312.857 362.171 299.437 346.002 289.997C344.981 289.399 343.96 288.8 342.908 288.184C322.976 277.468 297.05 273.848 275.065 279.622C272.692 280.354 270.335 281.144 268.002 281.997C266.823 282.409 265.643 282.822 264.428 283.247C241.484 292.132 224.018 310.856 214.065 333.059C204.94 354.871 205.195 379.365 213.895 401.242C217.731 410.564 222.196 418.487 229.002 425.997C229.666 426.813 230.33 427.629 231.014 428.469C244.574 444.686 264.406 454.354 285.002 457.997C312.586 459.935 337.229 454.604 359.002 436.997C360.317 435.984 360.317 435.984 361.658 434.95C398.226 406.158 420.639 362.35 442.002 321.997C442.823 320.451 442.823 320.451 443.661 318.874C445.251 315.861 446.818 312.838 448.377 309.809C449.101 308.437 449.101 308.437 449.84 307.038C450.273 306.185 450.705 305.332 451.151 304.454C451.534 303.711 451.917 302.968 452.312 302.203C454.217 296.112 449.761 289.901 447.026 284.63C444.181 279.377 440.678 274.692 437.002 269.997C436.167 268.856 436.167 268.856 435.315 267.692C409.17 233.027 368.017 209.68 325.221 203.446C304.626 201.289 281.968 201.313 262.002 206.997C260.754 207.335 260.754 207.335 259.48 207.68C239.276 213.28 220.464 223.047 204.002 235.997C203.079 236.699 202.156 237.402 201.205 238.126C167.073 264.908 145.282 304.706 139.663 347.587C134.92 391.145 147.554 435.826 175.002 469.997C203.298 504.844 241.848 527.611 286.866 532.555C335.367 537.192 383.529 519.207 421.002 488.997C421.959 488.234 422.915 487.47 423.901 486.684C429.263 482.359 434.454 477.881 439.541 473.235C441.166 471.757 442.807 470.295 444.463 468.852C450.643 463.443 456.196 457.603 461.658 451.489C462.935 450.071 464.234 448.674 465.533 447.278C471.583 440.769 477.114 433.966 482.521 426.924C484.063 424.918 485.614 422.92 487.166 420.922C500.039 404.295 512.001 387.033 523.358 369.337C524.045 368.276 524.732 367.215 525.44 366.122C526.016 365.217 526.592 364.312 527.186 363.38C529.216 360.717 531.241 358.885 534.002 356.997C537.686 356.536 540.19 356.714 543.69 357.934C549.66 363.259 551.278 372.822 553.323 380.274C553.623 381.346 553.923 382.418 554.233 383.522C554.872 385.809 555.509 388.097 556.144 390.385C557.804 396.378 559.487 402.365 561.166 408.352C561.497 409.535 561.829 410.718 562.17 411.937C564.868 421.564 567.654 431.163 570.502 440.747C573.665 451.399 576.75 462.068 579.672 472.789C583.905 488.179 588.352 502.466 603.002 510.997C612.07 515.36 623.426 515.947 633.159 513.442C647.302 508.44 654.073 496.854 660.94 484.372C661.996 482.482 663.057 480.594 664.117 478.706C664.809 477.474 665.499 476.242 666.188 475.008C668.674 470.56 671.229 466.163 673.877 461.809C676.872 456.871 679.83 451.915 682.752 446.934C686.596 440.386 690.451 433.845 694.315 427.309C695.14 425.912 695.14 425.912 695.983 424.487C698.695 419.898 701.408 415.31 704.123 410.723C710.212 400.433 716.273 390.127 722.315 379.809C729.887 366.877 737.517 353.981 745.165 341.094C747.927 336.439 750.685 331.781 753.44 327.122C753.95 326.259 754.46 325.396 754.986 324.507C758.119 319.204 761.236 313.89 764.342 308.571C765.101 307.272 765.86 305.973 766.62 304.674C768.084 302.169 769.545 299.663 771.004 297.155C772.985 293.758 774.988 290.375 777.002 286.997C777.954 285.394 777.954 285.394 778.925 283.76C779.531 282.769 780.136 281.779 780.76 280.758C781.29 279.885 781.82 279.012 782.366 278.113C784.126 275.836 785.321 274.971 788.002 273.997C792.523 273.563 795.217 274.249 799.127 276.497C800.539 277.305 800.539 277.305 801.979 278.13C806.243 280.763 810.371 283.577 814.471 286.458C816.936 288.256 816.936 288.256 820.002 287.997C820.175 260.472 819.869 232.956 819.502 205.434C819.49 204.537 819.478 203.639 819.466 202.714C819.316 191.475 819.161 180.236 819.002 168.997C815.529 168.997 814.069 169.814 811.014 171.419Z" fill="white"/>
<path d="M433 509.001C403.029 530.001 403.029 530.001 398 530.001C398.625 528.063 398.625 528.063 400 526.001C403.125 525.251 403.125 525.251 406 525.001C406.33 524.011 406.66 523.021 407 522.001C408.65 521.671 410.3 521.341 412 521.001C412 520.341 412 519.681 412 519.001C413.32 519.001 414.64 519.001 416 519.001C416 518.341 416 517.681 416 517.001C416.99 517.001 417.98 517.001 419 517.001C419.33 516.011 419.66 515.021 420 514.001C420.66 514.001 421.32 514.001 422 514.001C422 513.341 422 512.681 422 512.001C428.703 507.747 428.703 507.747 433 509.001Z" fill="white"/>
<path d="M657 489C658.399 492.179 657.893 493.301 656.688 496.688C655 500 655 500 653 501C651.981 502.655 650.982 504.323 650 506C649.34 506.66 648.68 507.32 648 508C646.68 508 645.36 508 644 508C643.67 508.99 643.34 509.98 643 511C640.69 511.33 638.38 511.66 636 512C637.935 510.528 639.867 509.088 641.895 507.746C648.846 503.003 653.411 496.562 657 489Z" fill="white"/>
<path d="M493 412C494 415 494 415 493.062 417.188C492.712 417.786 492.361 418.384 492 419C491.34 419 490.68 419 490 419C489.664 420.042 489.664 420.042 489.32 421.105C487.698 424.661 485.412 427.388 482.875 430.312C482.407 430.862 481.939 431.412 481.457 431.979C480.31 433.324 479.156 434.663 478 436C477.01 435.67 476.02 435.34 475 435C475.368 434.552 475.735 434.104 476.114 433.642C477.807 431.576 479.497 429.507 481.188 427.438C481.766 426.733 482.344 426.029 482.939 425.303C486.468 420.976 489.805 416.579 493 412Z" fill="white"/>
<path d="M474 436C474.33 436.66 474.66 437.32 475 438C471.712 443.42 468.509 447.714 463.535 451.66C461.455 453.476 460.303 455.589 459 458C457.312 459.812 457.312 459.812 456 461C455.01 460.67 454.02 460.34 453 460C457.834 454.365 462.835 448.898 467.911 443.482C470.159 441.068 472.166 438.751 474 436Z" fill="white"/>
<path d="M743 343C743.66 343.99 744.32 344.98 745 346C744.34 347.32 743.68 348.64 743 350C742.34 350 741.68 350 741 350C740.845 350.804 740.845 350.804 740.688 351.625C739.328 356.32 736.967 360.167 734 364C733.484 364.908 732.969 365.815 732.438 366.75C731.963 367.493 731.489 368.235 731 369C730.34 369 729.68 369 729 369C730.669 364.38 733.01 360.251 735.438 356C735.833 355.301 736.228 354.603 736.635 353.883C738.709 350.225 740.817 346.594 743 343Z" fill="white"/>
<path d="M733 401C733.99 401.33 734.98 401.66 736 402C734.029 405.421 732.054 408.839 730.073 412.254C729.4 413.417 728.728 414.581 728.057 415.746C727.095 417.416 726.128 419.083 725.16 420.75C724.579 421.755 723.998 422.761 723.399 423.797C722.706 424.887 722.706 424.887 722 426C721.67 426 721.34 426 721 426C721.75 419.375 721.75 419.375 724 416C725.791 412.845 727.571 409.685 729.344 406.52C729.89 405.688 730.437 404.857 731 404C731.66 404 732.32 404 733 404C733 403.01 733 402.02 733 401Z" fill="white"/>
<path d="M700 326C698.307 330.659 695.978 334.876 693.562 339.188C693.167 339.911 692.772 340.635 692.365 341.381C691.978 342.074 691.591 342.767 691.191 343.48C690.843 344.108 690.494 344.736 690.135 345.384C689 347 689 347 686 349C686 348.01 686 347.02 686 346C686.66 346 687.32 346 688 346C688.144 345.216 688.289 344.433 688.438 343.625C689 341 689 341 690 339C690.66 339 691.32 339 692 339C692 337.68 692 336.36 692 335C692.66 335 693.32 335 694 335C694.144 334.237 694.289 333.474 694.438 332.688C695 330 695 330 696 327C698 326 698 326 700 326Z" fill="white"/>
<path d="M214 227C214.66 227.33 215.32 227.66 216 228C214.127 229.419 212.251 230.835 210.375 232.25C209.331 233.039 208.287 233.828 207.211 234.641C204.19 236.86 201.135 238.948 198 241C197.34 240.34 196.68 239.68 196 239C208 229 208 229 214 227Z" fill="white"/>
<path d="M210 437C210.66 437 211.32 437 212 437C212 437.66 212 438.32 212 439C212.99 439.33 213.98 439.66 215 440C215 440.99 215 441.98 215 443C216.32 443.33 217.64 443.66 219 444C219 444.66 219 445.32 219 446C219.598 446.227 220.196 446.454 220.812 446.688C223.564 448.338 224.525 450.197 226 453C222.331 453 221.443 451.832 218.924 449.334C218.433 448.832 217.943 448.33 217.438 447.812C216.943 447.33 216.449 446.847 215.939 446.35C213.055 443.442 211.212 440.922 210 437Z" fill="white"/>
<path d="M440 367C440.99 367.33 441.98 367.66 443 368C441.423 370.733 439.837 373.461 438.25 376.188C437.585 377.341 437.585 377.341 436.906 378.518C434.521 382.604 432.093 386.394 429 390C429.33 387.69 429.66 385.38 430 383C430.99 382.67 431.98 382.34 433 382C433.591 380.054 433.591 380.054 434 378C434.66 377.34 435.32 376.68 436 376C436.643 373.931 436.643 373.931 437 372C437.66 372 438.32 372 439 372C439.33 370.35 439.66 368.7 440 367Z" fill="white"/>
<path d="M758 358C758.99 358.33 759.98 358.66 761 359C757.04 365.93 753.08 372.86 749 380C748 377 748 377 749 374C749.66 374 750.32 374 751 374C751.103 373.113 751.206 372.226 751.312 371.312C752.027 367.87 753.066 365.901 755 363C755.557 362.072 756.114 361.144 756.688 360.188C757.121 359.466 757.554 358.744 758 358Z" fill="white"/>
<path d="M676 363C676.66 363.33 677.32 363.66 678 364C676.471 368.272 674.285 371.993 671.875 375.812C671.502 376.41 671.13 377.007 670.746 377.623C669.834 379.084 668.918 380.542 668 382C667.67 380.68 667.34 379.36 667 378C667.99 377.67 668.98 377.34 670 377C670.062 375.989 670.124 374.979 670.188 373.938C670.809 369.326 673.145 366.587 676 363Z" fill="white"/>
<path d="M541 356.001C541.33 356.661 541.66 357.321 542 358.001C539.36 358.001 536.72 358.001 534 358.001C533.752 358.62 533.505 359.239 533.25 359.876C531.794 362.352 530.622 362.952 528 364.001C528 364.661 528 365.321 528 366.001C527.01 366.331 526.02 366.661 525 367.001C527.083 359.131 533.027 355.025 541 356.001Z" fill="white"/>
<path d="M228 279C228.99 279.33 229.98 279.66 231 280C229.714 281.173 228.421 282.338 227.125 283.5C226.406 284.15 225.686 284.799 224.945 285.469C223 287 223 287 221 287C220.773 287.619 220.546 288.238 220.312 288.875C218.621 291.614 217.008 292.05 214 293C222.539 282.54 222.539 282.54 228 279Z" fill="white"/>
<path d="M725.998 277C726.988 277.33 727.978 277.66 728.998 278C728.064 279.752 727.126 281.502 726.185 283.25C725.402 284.712 725.402 284.712 724.603 286.203C723.208 288.634 721.736 290.808 719.998 293C718.974 286.515 722.57 282.161 725.998 277Z" fill="white"/>
<path d="M482 259C482.33 259.99 482.66 260.98 483 262C481.917 262.804 481.917 262.804 480.812 263.625C477.752 266.209 475.488 268.872 473 272C472.01 271.67 471.02 271.34 470 271C471.433 269.371 472.872 267.747 474.312 266.125C475.113 265.22 475.914 264.315 476.738 263.383C479 261 479 261 482 259Z" fill="white"/>
<path d="M455 341C455.66 341.66 456.32 342.32 457 343C455.548 345.65 454.089 348.295 452.625 350.938C452.213 351.692 451.8 352.447 451.375 353.225C450.975 353.943 450.576 354.662 450.164 355.402C449.797 356.067 449.431 356.732 449.053 357.418C448 359 448 359 446 360C446 359.01 446 358.02 446 357C446.66 357 447.32 357 448 357C448.33 355.02 448.66 353.04 449 351C449.66 351 450.32 351 451 351C451.33 349.35 451.66 347.7 452 346C452.66 346 453.32 346 454 346C454.33 344.35 454.66 342.7 455 341Z" fill="white"/>
<path d="M166 493C169.315 494.105 169.97 494.876 172.125 497.5C176.159 502.268 180.541 506.632 185 511C182 511 182 511 180.191 509.563C179.536 508.905 178.881 508.248 178.207 507.57C177.495 506.857 176.783 506.145 176.049 505.41C175.311 504.656 174.573 503.902 173.812 503.125C173.063 502.379 172.313 501.632 171.541 500.863C166 495.267 166 495.267 166 493Z" fill="white"/>
<path d="M346 447.998C340.557 451.43 333.344 455.802 326.699 454.572C326.138 454.383 325.578 454.193 325 453.998C326.06 453.577 327.119 453.155 328.211 452.721C329.599 452.168 330.987 451.614 332.375 451.061C333.074 450.783 333.772 450.505 334.492 450.219C342.608 446.981 342.608 446.981 346 447.998Z" fill="white"/>
<path d="M650 407C650.99 407.33 651.98 407.66 653 408C650.03 413.28 647.06 418.56 644 424C643.67 424 643.34 424 643 424C643.745 416.255 643.745 416.255 647 413C647.66 413 648.32 413 649 413C649.33 411.02 649.66 409.04 650 407Z" fill="white"/>
<path d="M765.003 306C765.333 307.32 765.663 308.64 766.003 310C765.343 310 764.683 310 764.003 310C763.92 310.681 763.838 311.361 763.753 312.062C762.78 315.875 761.045 318.641 759.003 322C758.343 322 757.683 322 757.003 322C756.673 323.32 756.343 324.64 756.003 326C755.003 323 755.003 323 755.807 321.099C756.232 320.402 756.656 319.706 757.093 318.988C757.547 318.231 758.002 317.474 758.47 316.693C758.955 315.908 759.44 315.122 759.94 314.312C760.663 313.117 760.663 313.117 761.399 311.896C762.592 309.925 763.793 307.96 765.003 306Z" fill="white"/>
<path d="M220 415C223.86 418.747 227.366 422.685 230.812 426.812C231.315 427.41 231.817 428.007 232.334 428.623C233.558 430.08 234.779 431.54 236 433C233 433 233 433 231.312 431.625C230 430 230 430 230 428C229.407 427.763 228.814 427.526 228.203 427.281C225.519 425.72 224.422 424.1 222.75 421.5C221.969 420.309 221.969 420.309 221.172 419.094C220 417 220 417 220 415Z" fill="white"/>
<path d="M143 405C145.325 408.489 146.45 412.039 147.687 416C147.925 416.724 148.163 417.449 148.408 418.195C150.12 423.639 150.12 423.639 149 427C148.67 425.68 148.34 424.36 148 423C147.34 423 146.68 423 146 423C145.491 421.127 144.993 419.252 144.5 417.375C144.082 415.809 144.082 415.809 143.656 414.211C143.008 411.043 142.883 408.223 143 405Z" fill="white"/>
<path d="M391 404C391.33 405.32 391.66 406.64 392 408C391.01 408.66 390.02 409.32 389 410C388.526 410.804 388.051 411.609 387.562 412.438C385.966 415.055 384.538 416.337 382 418C381.34 417.67 380.68 417.34 380 417C383.63 412.71 387.26 408.42 391 404Z" fill="white"/>
<path d="M595.997 356C596.327 356 596.657 356 596.997 356C597.675 358.351 598.339 360.705 598.997 363.062C599.188 363.719 599.378 364.376 599.575 365.053C600.793 369.467 601.189 373.379 600.997 378C598.76 374.645 597.829 371.404 596.809 367.562C596.619 366.894 596.429 366.226 596.233 365.537C595.3 362.062 594.626 359.414 595.997 356Z" fill="white"/>
<path d="M413 522.003C403.774 528.522 403.774 528.522 398 530.003C398.625 528.065 398.625 528.065 400 526.003C403.125 525.253 403.125 525.253 406 525.003C406.33 524.013 406.66 523.023 407 522.003C409.491 520.757 410.411 521.226 413 522.003Z" fill="white"/>
<path d="M422 487C422.66 487.33 423.32 487.66 424 488C420.732 492.229 417.808 495.442 413 498C410.816 497.598 410.816 497.598 409 497C410.282 496.043 410.282 496.043 411.59 495.066C412.706 494.232 413.822 493.397 414.938 492.562C415.783 491.931 415.783 491.931 416.646 491.287C419.429 489.269 419.429 489.269 422 487Z" fill="white"/>
<path d="M684 309C684.33 309 684.66 309 685 309C685.812 311.625 685.812 311.625 686 315C684.621 317.54 683.142 318.955 681 321C680.01 321 679.02 321 678 321C679.566 316.692 681.683 312.938 684 309Z" fill="white"/>
<path d="M377 420C377.33 420.66 377.66 421.32 378 422C376.625 424 376.625 424 375 426C374.34 426 373.68 426 373 426C372.794 426.577 372.588 427.155 372.375 427.75C370.502 430.814 368.03 432.155 365 434C364.34 433.67 363.68 433.34 363 433C363.843 432.229 364.686 431.458 365.555 430.664C366.661 429.651 367.768 428.638 368.875 427.625C369.431 427.117 369.986 426.609 370.559 426.086C372.74 424.088 374.908 422.092 377 420Z" fill="white"/>
<path d="M561.001 408C563.471 411.704 564.453 415.32 565.689 419.562C565.927 420.343 566.164 421.124 566.409 421.928C568.124 427.755 568.124 427.755 567.001 430C564.136 426.718 563.237 423.79 562.314 419.562C562.062 418.45 561.811 417.338 561.552 416.191C561.065 413.372 560.889 410.85 561.001 408Z" fill="white"/>
<path d="M655 527.003C653.751 527.797 652.501 528.588 651.25 529.378C650.554 529.818 649.858 530.259 649.141 530.714C643.532 534.091 643.532 534.091 640.75 533.628C640.173 533.421 639.595 533.215 639 533.003C645.625 529.003 645.625 529.003 649 529.003C649 528.343 649 527.683 649 527.003C651.491 525.757 652.411 526.226 655 527.003Z" fill="white"/>
<path d="M259 285.997C256.714 287.528 254.422 289.047 252.125 290.56C251.474 290.997 250.823 291.435 250.152 291.886C248.474 292.985 246.74 293.998 245 294.997C244.34 294.667 243.68 294.337 243 293.997C244.497 292.76 245.995 291.523 247.492 290.286C248.711 289.245 249.867 288.131 251 286.997C255.469 284.82 255.469 284.82 259 285.997Z" fill="white"/>
<path d="M784 275C784.66 275.33 785.32 275.66 786 276C786 279.522 785.433 280.058 783.188 282.625C782.404 283.542 782.404 283.542 781.605 284.477C780 286 780 286 777 287C778.557 282.329 781.084 278.913 784 275Z" fill="white"/>
<path d="M491.996 446C492.656 446.99 493.316 447.98 493.996 449C491.026 452.63 488.056 456.26 484.996 460C483.996 456 483.996 456 485.309 453.75C486.144 452.884 486.144 452.884 486.996 452C487.656 452 488.316 452 488.996 452C488.996 451.01 488.996 450.02 488.996 449C489.656 449 490.316 449 490.996 449C491.326 448.01 491.656 447.02 491.996 446Z" fill="white"/>
<path d="M195 321C195.66 321.99 196.32 322.98 197 324C196.125 327.688 196.125 327.688 195 331C194.34 331 193.68 331 193 331C192.34 332.32 191.68 333.64 191 335C190.67 334.34 190.34 333.68 190 333C190.732 330.928 191.559 328.889 192.438 326.875C192.911 325.779 193.384 324.684 193.871 323.555C194.244 322.712 194.616 321.869 195 321Z" fill="white"/>
<path d="M230 305C230.99 305.33 231.98 305.66 233 306C232.541 306.519 232.082 307.039 231.609 307.574C228.316 311.317 225.07 315.07 222 319C221.67 318.01 221.34 317.02 221 316C221.99 315.67 222.98 315.34 224 315C224 314.01 224 313.02 224 312C224.66 312 225.32 312 226 312C226.155 311.103 226.155 311.103 226.312 310.188C227.089 307.718 228.071 306.677 230 305Z" fill="white"/>
<path d="M487 283C487.99 283.33 488.98 283.66 490 284C487.03 288.29 484.06 292.58 481 297C480.67 295.68 480.34 294.36 480 293C480.99 292.67 481.98 292.34 483 292C483.33 290.02 483.66 288.04 484 286C484.99 286 485.98 286 487 286C487 285.01 487 284.02 487 283Z" fill="white"/>
<path d="M364 543.997C363 545.997 363 545.997 360.496 546.848C358.982 547.231 358.982 547.231 357.438 547.622C356.426 547.882 355.414 548.143 354.371 548.411C353.589 548.604 352.806 548.798 352 548.997C352 548.007 352 547.017 352 545.997C353.433 545.465 354.872 544.947 356.312 544.434C357.113 544.144 357.914 543.854 358.738 543.555C361 542.997 361 542.997 364 543.997Z" fill="white"/>
<path d="M194 411C194.99 411 195.98 411 197 411C197.99 414.3 198.98 417.6 200 421C200.66 421 201.32 421 202 421C201.67 422.32 201.34 423.64 201 425C198.609 422.068 197.159 419.279 195.812 415.75C195.468 414.858 195.124 413.966 194.77 413.047C194.516 412.371 194.262 411.696 194 411Z" fill="white"/>
<path d="M421 252C424.713 252.502 426.663 253.025 429 256C430.75 258.562 430.75 258.562 432 261C431.67 261.66 431.34 262.32 431 263C429.33 261.357 427.664 259.711 426 258.062C425.072 257.146 424.144 256.229 423.188 255.285C421 253 421 253 421 252Z" fill="white"/>
<path d="M745.999 379C746.659 379.33 747.319 379.66 747.999 380C746.357 384.776 743.734 388.794 740.999 393C739.999 390 739.999 390 740.777 388.246C741.159 387.649 741.542 387.052 741.937 386.438C743.623 383.92 743.623 383.92 743.999 381C744.659 381 745.319 381 745.999 381C745.999 380.34 745.999 379.68 745.999 379Z" fill="white"/>
<path d="M187 220C187.66 220.33 188.32 220.66 189 221C186.36 223.97 183.72 226.94 181 230C180.01 229.34 179.02 228.68 178 228C180.97 225.36 183.94 222.72 187 220Z" fill="white"/>
<path d="M573 513C575.726 513.373 576.808 513.792 578.703 515.848C579.214 516.579 579.724 517.309 580.25 518.062C580.771 518.796 581.292 519.529 581.828 520.285C582.215 520.851 582.602 521.417 583 522C580 522 580 522 578.176 520.285C577.561 519.552 576.946 518.818 576.312 518.062C575.69 517.332 575.067 516.601 574.426 515.848C573 514 573 514 573 513Z" fill="white"/>
<path d="M674 503C674.33 503.99 674.66 504.98 675 506C673.602 508.48 673.602 508.48 671.625 511.188C670.978 512.089 670.331 512.99 669.664 513.918C669.115 514.605 668.566 515.292 668 516C667.67 516 667.34 516 667 516C667 514.35 667 512.7 667 511C667.99 511 668.98 511 670 511C670.103 510.237 670.206 509.474 670.312 508.688C671.044 505.829 671.77 504.843 674 503Z" fill="white"/>
<path d="M443 496C443.99 496.66 444.98 497.32 446 498C444.88 499.006 443.754 500.005 442.625 501C441.685 501.835 441.685 501.835 440.727 502.688C439 504 439 504 437 504C437.33 502.68 437.66 501.36 438 500C438.99 500 439.98 500 441 500C441.66 498.68 442.32 497.36 443 496Z" fill="white"/>
<path d="M686 440C688 443 688 443 688 447C686.188 448.062 686.188 448.062 684 449C683.01 448.67 682.02 448.34 681 448C682.65 445.36 684.3 442.72 686 440Z" fill="white"/>
<path d="M451 302C451.66 302.99 452.32 303.98 453 305C451.02 308.63 449.04 312.26 447 316C446.34 316 445.68 316 445 316C446.492 311.028 448.605 306.582 451 302Z" fill="white"/>
<path d="M451 252C454.288 255.11 456.837 258.016 459 262C456.525 261.01 456.525 261.01 454 260C454 259.34 454 258.68 454 258C453.34 258 452.68 258 452 258C452 257.34 452 256.68 452 256C451.34 256 450.68 256 450 256C450.33 254.68 450.66 253.36 451 252Z" fill="white"/>
<path d="M438 328C439.017 330.655 439.13 331.692 438.004 334.359C437.528 335.148 437.053 335.937 436.562 336.75C436.089 337.549 435.616 338.348 435.129 339.172C434.756 339.775 434.384 340.378 434 341C433.34 341 432.68 341 432 341C433.413 336.173 435.43 332.284 438 328Z" fill="white"/>
<path d="M255 263C255.66 263.33 256.32 263.66 257 264C255.793 264.402 255.793 264.402 254.562 264.812C253.717 265.204 252.871 265.596 252 266C251.67 266.99 251.34 267.98 251 269C248.69 269 246.38 269 244 269C247.421 266.126 250.839 264.541 255 263Z" fill="white"/>
<path d="M409 241C412.602 241.309 413.993 241.994 416.812 244.375C419 247 419 247 419 250C417.894 249.064 416.791 248.126 415.688 247.188C415.073 246.665 414.458 246.143 413.824 245.605C412.146 244.128 410.561 242.6 409 241Z" fill="white"/>
<path d="M681.002 489C681.662 489 682.322 489 683.002 489C682.519 494.155 679.816 497.816 677.002 502C675.61 497.824 677.179 495.865 679.002 492C679.662 492 680.322 492 681.002 492C681.002 491.01 681.002 490.02 681.002 489Z" fill="white"/>
<path d="M508 391C509 395 509 395 507.062 398.25C506.382 399.158 505.701 400.065 505 401C504.01 400.67 503.02 400.34 502 400C503.98 397.03 505.96 394.06 508 391Z" fill="white"/>
<path d="M641 382C641.66 383.32 642.32 384.64 643 386C639.375 390.875 639.375 390.875 636 392C637.335 388.406 638.96 385.245 641 382Z" fill="white"/>
<path d="M657 355C657.66 355.99 658.32 356.98 659 358C658.01 359.98 657.02 361.96 656 364C654.68 363.67 653.36 363.34 652 363C653.65 360.36 655.3 357.72 657 355Z" fill="white"/>
<path d="M466 318C466.99 318 467.98 318 469 318C467.313 322.498 465.183 326.729 463 331C462.67 331 462.34 331 462 331C462 329.35 462 327.7 462 326C462.66 326 463.32 326 464 326C464.66 323.36 465.32 320.72 466 318Z" fill="white"/>
<path d="M793 300C794.65 300 796.3 300 798 300C798.33 300.66 798.66 301.32 799 302C797.68 302 796.36 302 795 302C793.2 303.972 793.2 303.972 791.75 306.5C791.229 307.335 790.708 308.171 790.172 309.031C789.785 309.681 789.398 310.331 789 311C788.67 310.01 788.34 309.02 788 308C789.281 306.293 790.618 304.626 792 303C792.33 302.01 792.66 301.02 793 300Z" fill="white"/>
<path d="M213 293C214 297 214 297 212.75 299.688C211 302 211 302 208 303C207.67 302.34 207.34 301.68 207 301C208.98 298.36 210.96 295.72 213 293Z" fill="white"/>
<path d="M521 408C521.99 408.33 522.98 408.66 524 409C520.535 413.95 520.535 413.95 517 419C516.67 417.68 516.34 416.36 516 415C516.66 414.67 517.32 414.34 518 414C519.048 412.025 520.052 410.025 521 408Z" fill="white"/>
<path d="M474 436C474.33 436.66 474.66 437.32 475 438C473.02 440.97 471.04 443.94 469 447C468.01 446.34 467.02 445.68 466 445C468.64 442.03 471.28 439.06 474 436Z" fill="white"/>
<path d="M684 350C685 353 685 353 683.785 355.699C683.217 356.685 682.648 357.671 682.062 358.688C681.214 360.178 681.214 360.178 680.348 361.699C679.681 362.838 679.681 362.838 679 364C678.316 362.328 678.316 362.328 678 360C679.215 357.422 679.215 357.422 680.938 354.75C681.503 353.858 682.069 352.966 682.652 352.047C683.097 351.371 683.542 350.696 684 350Z" fill="white"/>
<path d="M802 278C803.816 278.951 805.628 279.911 807.438 280.875C808.447 281.409 809.456 281.942 810.496 282.492C813 284 813 284 814 286C805.176 284.235 805.176 284.235 802 280C802 279.34 802 278.68 802 278Z" fill="white"/>
<path d="M491.375 253.185C491.911 253.453 492.447 253.721 493 253.997C489.124 257.609 489.124 257.609 487 258.997C484.625 258.81 484.625 258.81 483 257.997C488.415 252.951 488.415 252.951 491.375 253.185Z" fill="white"/>
<path d="M703 277C704 280 704 280 703.223 282.043C702.84 282.751 702.457 283.458 702.062 284.188C701.682 284.903 701.302 285.618 700.91 286.355C700.46 287.17 700.46 287.17 700 288C699.34 287.67 698.68 287.34 698 287C699.335 283.406 700.96 280.245 703 277Z" fill="white"/>
<path d="M399 307C402.26 310.17 405.222 313.399 408 317C407.67 317.66 407.34 318.32 407 319C405.845 317.758 404.702 316.506 403.562 315.25C402.924 314.554 402.286 313.858 401.629 313.141C400.009 311.012 399.417 309.61 399 307Z" fill="white"/>
<path d="M469 472C469.99 472 470.98 472 472 472C470.607 475.367 469.021 476.986 466 479C466.75 474.25 466.75 474.25 469 472Z" fill="white"/>
<path d="M270 454C274.95 454.99 274.95 454.99 280 456C279.34 456.66 278.68 457.32 278 458C274.375 457.625 274.375 457.625 271 457C270.67 456.01 270.34 455.02 270 454Z" fill="white"/>
<path d="M124 411C124.33 411 124.66 411 125 411C125.66 414.63 126.32 418.26 127 422C126.01 421.67 125.02 421.34 124 421C123.806 419.522 123.62 418.042 123.438 416.562C123.333 415.739 123.229 414.915 123.121 414.066C123.081 413.384 123.041 412.703 123 412C123.33 411.67 123.66 411.34 124 411Z" fill="white"/>
<path d="M415 406C415.66 406.99 416.32 407.98 417 409C415.35 411.31 413.7 413.62 412 416C411.67 414.68 411.34 413.36 411 412C411.66 412 412.32 412 413 412C413.144 411.196 413.289 410.391 413.438 409.562C414 407 414 407 415 406Z" fill="white"/>
<path d="M603 386C603.99 386.33 604.98 386.66 606 387C606.625 390.375 606.625 390.375 607 394C606.34 394.66 605.68 395.32 605 396C604.34 392.7 603.68 389.4 603 386Z" fill="white"/>
<path d="M404 386C405 389 405 389 403.688 391.688C403.131 392.451 402.574 393.214 402 394C401.34 394 400.68 394 400 394C400 394.66 400 395.32 400 396C399.34 396 398.68 396 398 396C399.652 392.421 401.783 389.252 404 386Z" fill="white"/>
<path d="M410 323C410.66 323.33 411.32 323.66 412 324C412.188 327.312 412.188 327.312 412 331C411.01 331.99 410.02 332.98 409 334C409.33 330.37 409.66 326.74 410 323Z" fill="white"/>
<path d="M662 518C662.99 518.33 663.98 518.66 665 519C661.535 521.97 661.535 521.97 658 525C657.67 524.01 657.34 523.02 657 522C659.312 519.938 659.312 519.938 662 518Z" fill="white"/>
<path d="M154 479C156.884 480.293 158.872 481.659 161 484C160.67 484.99 160.34 485.98 160 487C155.125 482.375 155.125 482.375 154 479Z" fill="white"/>
<path d="M243 440C246.777 441.813 250.373 443.907 254 446C252.234 446.645 252.234 446.645 250 447C248.078 446.074 248.078 446.074 246.25 444.688C245.636 444.238 245.023 443.788 244.391 443.324C243.932 442.887 243.473 442.45 243 442C243 441.34 243 440.68 243 440Z" fill="white"/>
<path d="M708 202C707.5 203.938 707.5 203.938 706 206C703.303 206.688 700.798 206.819 698 207C704.364 202 704.364 202 708 202Z" fill="white"/>
<path d="M760 174C760 174.66 760 175.32 760 176C758.039 177.389 756.038 178.726 754 180C753.01 179.34 752.02 178.68 751 178C757.75 174 757.75 174 760 174Z" fill="white"/>
<path d="M716.999 387C717.329 387 717.659 387 717.999 387C718.411 390.603 718.153 391.784 715.999 394.812C715.339 395.534 714.679 396.256 713.999 397C712.999 394 712.999 394 713.777 392.176C714.851 390.451 715.925 388.725 716.999 387Z" fill="white"/>
<path d="M722 379C722.66 379 723.32 379 724 379C723.75 381.375 723.75 381.375 723 384C720.938 385.312 720.938 385.312 719 386C720.875 380.125 720.875 380.125 722 379Z" fill="white"/>
<path d="M647 372C648 375 648 375 646.75 378.125C645 381 645 381 642 382C643.335 378.406 644.96 375.245 647 372Z" fill="white"/>
<path d="M675 324C675.33 325.32 675.66 326.64 676 328C675.34 328 674.68 328 674 328C673.67 329.65 673.34 331.3 673 333C672.01 333.33 671.02 333.66 670 334C671.335 330.406 672.96 327.245 675 324Z" fill="white"/>
<path d="M482 259C482.33 259.99 482.66 260.98 483 262C481.35 263.32 479.7 264.64 478 266C477.67 265.01 477.34 264.02 477 263C478.65 261.68 480.3 260.36 482 259Z" fill="white"/>
<path d="M589 527C594.75 527.75 594.75 527.75 597 530C594.394 530.931 593.358 531.149 590.75 530.062C590.173 529.712 589.595 529.361 589 529C589 528.34 589 527.68 589 527Z" fill="white"/>
<path d="M422 487C422.66 487.33 423.32 487.66 424 488C422.35 489.98 420.7 491.96 419 494C418.01 493.34 417.02 492.68 416 492C417.98 490.35 419.96 488.7 422 487Z" fill="white"/>
<path d="M677 455C677.688 456.688 677.688 456.688 678 459C676.688 461.75 676.688 461.75 675 464C674.34 464 673.68 464 673 464C674.199 460.917 675.477 457.937 677 455Z" fill="white"/>
<path d="M354 440C354.33 440.66 354.66 441.32 355 442C354.34 442 353.68 442 353 442C352.732 442.639 352.464 443.279 352.188 443.938C351 446 351 446 348 447C348.188 445.188 348.188 445.188 349 443C351.562 441.25 351.562 441.25 354 440Z" fill="white"/>
<path d="M524 367C524.66 367.99 525.32 368.98 526 370C524.35 371.65 522.7 373.3 521 375C521.547 371.625 522.055 369.918 524 367Z" fill="white"/>
<path d="M455 341C455.66 341.66 456.32 342.32 457 343C455.68 345.64 454.36 348.28 453 351C452.67 351 452.34 351 452 351C452 349.35 452 347.7 452 346C452.66 346 453.32 346 454 346C454.33 344.35 454.66 342.7 455 341Z" fill="white"/>
<path d="M776 328C776.66 328 777.32 328 778 328C777.521 332.314 776.254 334.166 773 337C773.33 335.02 773.66 333.04 774 331C774.66 331 775.32 331 776 331C776 330.01 776 329.02 776 328Z" fill="white"/>
<path d="M608 326C608.99 326.495 608.99 326.495 610 327C610.414 329.066 610.414 329.066 610.625 331.562C610.7 332.389 610.775 333.215 610.852 334.066C610.925 335.024 610.925 335.024 611 336C608.646 333.449 608.017 332.29 607.812 328.75C607.874 327.842 607.936 326.935 608 326Z" fill="white"/>
<path d="M787 309C787.66 309.99 788.32 310.98 789 312C787.68 314.31 786.36 316.62 785 319C784.67 319 784.34 319 784 319C784 317.35 784 315.7 784 314C784.99 313.67 785.98 313.34 787 313C786.67 312.01 786.34 311.02 786 310C786.33 309.67 786.66 309.34 787 309Z" fill="white"/>
<path d="M707 270C707.66 270.33 708.32 270.66 709 271C708.75 272.875 708.75 272.875 708 275C705.938 276.25 705.938 276.25 704 277C705.875 272.25 705.875 272.25 707 270Z" fill="white"/>
<path d="M173 233C173.33 233.99 173.66 234.98 174 236C171.03 238.475 171.03 238.475 168 241C168.542 237.204 170.201 235.528 173 233Z" fill="white"/>
<path d="M643 507C643.66 507.33 644.32 507.66 645 508C644.01 509.485 644.01 509.485 643 511C639.375 511.688 639.375 511.688 636 512C638.297 510.257 640.599 508.601 643 507Z" fill="white"/>
<path d="M405 500C405.99 500.66 406.98 501.32 408 502C406 504 406 504 402.875 504.125C401.452 504.063 401.452 504.063 400 504C401.65 502.68 403.3 501.36 405 500Z" fill="white"/>
<path d="M408 415C408.99 415.33 409.98 415.66 411 416C409.02 418.97 409.02 418.97 407 422C406.375 420.188 406.375 420.188 406 418C406.66 417.01 407.32 416.02 408 415Z" fill="white"/>
<path d="M418 364C418.66 364.99 419.32 365.98 420 367C418.35 368.65 416.7 370.3 415 372C415 368.424 416.088 366.947 418 364Z" fill="white"/>
<path d="M173 266C171.75 269.653 171.329 270.781 168 273C168.375 270.062 168.375 270.062 169 267C171 266 171 266 173 266Z" fill="white"/>
<path d="M517 242.997C513.772 245.149 512.716 245.197 509 244.997C509 244.337 509 243.677 509 242.997C512.29 241.9 513.713 242.197 517 242.997Z" fill="white"/>
<path d="M398 230C398.99 230.33 399.98 230.66 401 231C401 231.99 401 232.98 401 234C402.32 234.66 403.64 235.32 405 236C401.092 236 399.884 234.494 397 232C397.33 231.34 397.66 230.68 398 230Z" fill="white"/>
</g>
<defs>
<clipPath id="clip0_3479_423">
<rect width="866" height="678" fill="white" transform="translate(50 20)"/>
</clipPath>
</defs>
</svg>
